<svg xmlns:svg="http://www.w3.org/2000/svg" xmlns="http://www.w3.org/2000/svg" xmlns:xlink="http://www.w3.org/1999/xlink" version="1.0" width="350" height="350" id="svg2047">
    <defs id="defs">
        <linearGradient id="tile-grad"><stop stop-color="#f4e3ca" offset="0"/><stop stop-color="#e9cc9d" offset="1"/></linearGradient>
        <linearGradient id="back-grad"><stop stop-color="#e7c78d" offset="0"/><stop stop-color="#e7c78d" offset="1"/></linearGradient>
        <linearGradient id="blue-grad"><stop stop-color="#000066" offset="0"/><stop stop-color="#00004f" offset="1"/></linearGradient>
    </defs>
    <g transform="matrix(1.0365493, 0, 0, 1.0365493, -17.701257, -6.5981711)">
        <g id="tile">
            <rect id="tile-back"  fill="url(#back-grad)" stroke="black" stroke-width="3.30574679" y="75.558617" x="13.211552" ry="37.487125" rx="27.963432" height="273.33887" width="274.39041" transform="matrix(0.9870852, -0.1601962, 0.1691987, 0.985582, 0, 0)"/>
            <rect id="tile-front" fill="url(#tile-grad)" stroke="black" stroke-width="3.30574346" y="56.547047" x="19.577763" ry="37.487095" rx="27.963409" height="273.33868" width="274.39020" transform="matrix(0.9870852, -0.1601962, 0.1691987, 0.985582, 0, 0)"/>
        </g>
        <path id="char" fill="url(#blue-grad)" stroke="black" stroke-width="2.48703504" d="M 294.39268,64.778124 L 295.12213,69.709024 C 290.64497,70.35919 287.13778,71.730873 284.59999,73.823675 C 282.06191,75.916535 279.86775,79.456948 278.01721,84.44475 C 276.78755,87.800097 275.22424,95.604687 273.32704,107.85973 L 246.97917,260.47598 L 241.91104,261.21212 L 185.66651,151.35589 L 163.85961,272.54757 L 159.29819,273.21 L 86.03758,130.56763 C 80.580544,119.92549 77.193958,113.65624 75.878049,111.75957 C 73.689239,108.62903 71.016215,106.45376 67.858799,105.23311 C 64.701384,104.01279 60.630484,103.7645 55.646863,104.4882 L 54.917433,99.557371 L 118.52403,90.319663 L 119.25341,95.250593 L 116.21275,95.692213 C 111.73556,96.342449 108.47224,97.905702 106.42241,100.38123 C 104.37268,102.85721 103.57114,105.60518 104.01827,108.62585 C 104.47796,111.73545 107.39439,118.61777 112.76726,129.27219 L 161.60029,225.77498 L 177.35404,135.41088 L 170.03849,120.95464 L 164.18994,109.41621 C 161.75886,105.23152 159.19541,101.61087 156.49973,98.553545 C 155.15197,97.02509 153.59005,95.799783 151.81433,94.877924 C 149.46611,93.5855 147.18333,92.737347 144.96645,92.332831 C 143.28275,92.03317 140.70904,92.13456 137.24579,92.637599 L 136.51633,87.70667 L 203.41747,77.990531 L 204.1469,82.921399 L 199.58553,83.583868 C 194.85507,84.270889 191.54952,85.840248 189.66875,88.291291 C 187.78771,90.742731 187.11678,93.789598 187.65584,97.431848 C 188.32576,101.96308 191.39616,109.59417 196.86671,120.32546 L 244.33955,213.75864 L 262.30361,109.46067 C 264.39046,97.904178 265.1183,89.993821 264.48773,85.72888 C 264.18521,83.685779 263.29019,81.864574 261.80272,80.265533 C 260.3151,78.666557 258.58927,77.646611 256.62601,77.205665 C 253.23195,76.428036 248.95852,76.41341 243.80613,77.16167 L 243.0767,72.230801 L 294.39268,64.778124 z"/>
    </g>
</svg>